
# cube.obj
#

mtllib cube.mtl
o cube

v -1.000000 -1.000000 1.000000
v 1.000000 -1.000000 1.000000
v -1.000000 1.000000 1.000000
v 1.000000 1.000000 1.000000
v -1.000000 1.000000 -1.000000
v 1.000000 1.000000 -1.000000
v -1.000000 -1.000000 -1.000000
v 1.000000 -1.000000 -1.000000

vt 0.000000 0.000000
vt 1.000000 0.000000
vt 0.000000 0.333333
vt 1.000000 0.333333
vt 0.000000 0.666666
vt 1.000000 0.666666
vt 0.000000 1.000000
vt 1.000000 1.000000

vn 0.000000 0.000000 1.000000
vn 0.000000 1.000000 0.000000
vn 0.000000 0.000000 -1.000000
vn 0.000000 -1.000000 0.000000
vn 1.000000 0.000000 0.000000
vn -1.000000 0.000000 0.000000

g cube
usemtl cube
s 1
f 1/6/1 2/5/1 3/4/1
f 3/4/1 2/5/1 4/3/1
s 2
f 3/1/2 4/2/2 5/3/2
f 5/3/2 4/2/2 6/4/2
s 3
f 5/3/3 6/4/3 7/5/3
f 7/5/3 6/4/3 8/6/3
s 4
f 7/5/4 8/6/4 1/7/4
f 1/7/4 8/6/4 2/8/4
s 5
f 2/6/5 8/5/5 4/4/5
f 4/4/5 8/5/5 6/3/5
s 6
f 7/6/6 1/5/6 5/4/6
f 5/4/6 1/5/6 3/3/6
